<?xml version="1.0" standalone="no"?><!DOCTYPE svg PUBLIC "-//W3C//DTD SVG 1.1//EN" "http://www.w3.org/Graphics/SVG/1.1/DTD/svg11.dtd"><svg t="1585240063222" class="icon" viewBox="0 0 1024 1024" version="1.1" xmlns="http://www.w3.org/2000/svg" p-id="3949" xmlns:xlink="http://www.w3.org/1999/xlink" width="200" height="200"><defs><style type="text/css"></style></defs><path d="M798.9 66H139.8C99.3 66 66 99.3 66 139.8V859.3c0 40.5 33.3 73.7 73.8 73.7h398.6c-49-51-79.1-120.7-79.1-197.1 0-17.6 1.6-33.9 4.7-51.9h-77c-20.1 0-36.5-16.7-36.5-37s16.3-37 36.5-37h101.3c22.2-45 56.1-83 97.7-111H387c-20.1 0-36.5-15.7-36.5-36s16.3-36 36.5-36h283.9c17 0 31.2 11.1 35.3 26.8 12.4-1.7 25.4-2.6 38.3-2.6 46.2 0 89.6 10.9 128.6 30.4V139.8C873 99.3 839.4 66 798.9 66zM267.2 683.3c-20.3 0-36.7-16.4-36.7-36.7 0-20.3 16.4-36.7 36.7-36.7 20.3 0 36.7 16.4 36.7 36.7 0 20.3-16.4 36.7-36.7 36.7z m0-184.3c-20.3 0-36.7-16.4-36.7-36.7 0-20.3 16.4-36.7 36.7-36.7 20.3 0 36.7 16.4 36.7 36.7 0 20.3-16.4 36.7-36.7 36.7z m0-184.3c-20.3 0-36.7-16.4-36.7-36.7 0-20.3 16.4-36.7 36.7-36.7 20.3 0 36.7 16.4 36.7 36.7 0 20.3-16.4 36.7-36.7 36.7z m403.7 0.3H387c-20.1 0-36.5-15.7-36.5-36s16.3-36 36.5-36h283.9c20.1 0 36.5 15.7 36.5 36-0.1 20.3-16.4 36-36.5 36z" p-id="3950" fill="#1296db"></path><path d="M744.2 520.5c-119 0-215.4 96.4-215.4 215.4s96.4 215.4 215.4 215.4 215.4-96.4 215.4-215.4c0-118.9-96.5-215.4-215.4-215.4zM869 795H748.9c-1.4 0-3 0.2-4.4 0.2-20.3 0-36.4-16.3-36.4-36.5v-147c0-20.1 16.2-36.5 36.5-36.5s36.5 16.3 36.5 36.5V723h88c20.1 0 36.5 15.7 36.5 36s-16.5 36-36.6 36z" p-id="3951" fill="#1296db"></path></svg>